# xmcd CD database file
#
# Track frame offsets:
#	150
#	25595
#	50000
#	71118
#	89530
#	108028
#	128272
#	154022
#	174427
#	200958
#	226637
#	253550
#	278325
#
# Disc length: 4008 seconds
#
# Revision: 3
# Processed by: cddbd v1.5.2PL0 Copyright (c) Steve Scherf et al.
# Submitted via: CDex 1.70beta2
#
DISCID=9f0fa60d
DTITLE=石川智晶 - この世界を誰にも語らせないように
DYEAR=2012
DGENRE=Anime
TTITLE0=TW
TTITLE1=The Giving Tree
TTITLE2=My book
TTITLE3=不完全燃焼
TTITLE4=アンインストール ～僕が最後のパイロットRemix～
TTITLE5=スイッチが入ったら
TTITLE6=逆光
TTITLE7=インソムニア
TTITLE8=夏の庭
TTITLE9=それは紛れもなく～選ばれし者のソリチュード～
TTITLE10=涙腺
TTITLE11=もう何も怖くない、怖くはない
TTITLE12=シャーベットスノウ
EXTD=YEAR: 2012
EXTT0=
EXTT1=
EXTT2=
EXTT3=
EXTT4=
EXTT5=
EXTT6=
EXTT7=
EXTT8=
EXTT9=
EXTT10=
EXTT11=
EXTT12=
PLAYORDER=
